<?xml version="1.0" encoding="utf-8"?>
<!-- Generator: Adobe Illustrator 19.0.0, SVG Export Plug-In . SVG Version: 6.00 Build 0)  -->
<svg version="1.1" id="Layer_1" xmlns="http://www.w3.org/2000/svg" xmlns:xlink="http://www.w3.org/1999/xlink" x="0px" y="0px"
	 viewBox="0 0 148 148" style="enable-background:new 0 0 148 148;" xml:space="preserve">
<style type="text/css">
	.st0{fill:#FFFFFF;}
	.st1{fill:#4B96EF;}
</style>
<g id="XMLID_1_">
	<path id="XMLID_5_" class="st0" d="M6.5,106.4l17.7,5.5l40.6-10.2L12,85c-2.8-0.9-5.9-0.4-8.2,1.4C1.4,88.1,0,90.9,0,93.8v3.7
		C0,101.6,2.6,105.2,6.5,106.4z"/>
	<path id="XMLID_4_" class="st0" d="M141.5,125.5l-1.2-0.4l-41.1,10.3l36.8,11.5c2.8,0.9,5.9,0.4,8.2-1.4c2.4-1.7,3.8-4.5,3.8-7.4
		v-3.7C148,130.2,145.4,126.7,141.5,125.5z"/>
	<path id="XMLID_3_" class="st0" d="M144.4,95c-1.6-1.3-3.6-2-5.7-2l-2.2,0.3L7,125.7c-4.1,1-7,4.7-7,9v4c0,2.9,1.3,5.5,3.6,7.3
		c1.6,1.3,3.6,2,5.7,2l2.2-0.3L141,115.4c4.1-1,7-4.7,7-9v-4C148,99.5,146.7,96.8,144.4,95z"/>
	<path id="XMLID_8_" class="st1" d="M50.9,74.1c7.9,17.6,37.2,27.8,52,6.1c14.8-21.5,2-56.2-24.4-80.2C83,24.7,33.3,34.9,50.9,74.1z
		 M66.6,64.9c4.1-4.3,14-9.7,15.3-28.3c21.9,14.8,12.3,50.2-4,47.3C61.3,80.9,62.5,69.1,66.6,64.9z"/>
</g>
</svg>
