<?xml version="1.0" encoding="utf-8"?>
<!-- Generator: Adobe Illustrator 19.0.0, SVG Export Plug-In . SVG Version: 6.00 Build 0)  -->
<svg version="1.1" id="Icons" xmlns="http://www.w3.org/2000/svg" xmlns:xlink="http://www.w3.org/1999/xlink" x="0px" y="0px"
	 viewBox="0 0 16 16" style="enable-background:new 0 0 16 16;" xml:space="preserve">
<style type="text/css">
	.st0{fill:#1D1D1B;}
</style>
<path id="Dribbble_1_" class="st0" d="M8,0C3.6,0,0,3.6,0,8c0,4.4,3.6,8,8,8s8-3.6,8-8C16,3.6,12.4,0,8,0z M12.9,4.1
	c0.8,1,1.3,2.2,1.3,3.6c-0.9-0.2-1.8-0.3-2.6-0.3l0,0h0c-0.6,0-1.2,0.1-1.8,0.2c-0.1-0.3-0.3-0.7-0.4-1C10.7,6.1,11.9,5.3,12.9,4.1z
	 M8,1.8c1.5,0,2.8,0.5,3.9,1.4c-0.8,1-1.9,1.7-3.1,2.2C8,3.7,7.2,2.6,6.7,1.9C7.1,1.8,7.5,1.8,8,1.8z M5.2,2.4
	C5.7,2.9,6.5,4,7.5,5.8C5.6,6.4,3.7,6.5,2.5,6.5c0,0-0.1,0-0.1,0h0c-0.2,0-0.4,0-0.5,0C2.4,4.7,3.6,3.2,5.2,2.4z M1.8,8
	C1.8,8,1.8,7.9,1.8,8c0.2-0.1,0.4-0.1,0.7-0.1h0c1.3,0,3.4-0.1,5.7-0.8c0.1,0.3,0.2,0.5,0.4,0.8C7,8.4,5.8,9.2,5,10
	c-0.8,0.8-1.4,1.5-1.7,2C2.3,10.9,1.8,9.5,1.8,8z M8,14.2c-1.4,0-2.7-0.5-3.7-1.2C4.5,12.6,5,12,5.7,11.2c0.8-0.7,1.8-1.5,3.2-2
	c0.5,1.3,0.9,2.9,1.2,4.6C9.5,14.1,8.8,14.2,8,14.2z M11.5,13.1c-0.3-1.5-0.7-2.9-1.2-4.2c0.4-0.1,0.8-0.1,1.3-0.1h0l0,0h0
	c0.7,0,1.6,0.1,2.4,0.3C13.8,10.8,12.9,12.2,11.5,13.1z"/>
</svg>
