<?xml version="1.0" encoding="utf-8"?>
<!-- Generator: Adobe Illustrator 19.0.0, SVG Export Plug-In . SVG Version: 6.00 Build 0)  -->
<svg version="1.1" id="Layer_1" xmlns="http://www.w3.org/2000/svg" xmlns:xlink="http://www.w3.org/1999/xlink" x="0px" y="0px"
	 viewBox="0 0 117 117" style="enable-background:new 0 0 117 117;" xml:space="preserve">
<style type="text/css">
	.st0{fill:#1D1D1B;}
</style>
<g>
	<path id="XMLID_8_" class="st0" d="M30.1,19.7l-5.2-5.2c-1.4-1.4-3.7-1.4-5.2,0c-1.4,1.4-1.4,3.8,0,5.2l5.2,5.2
		c1.4,1.4,3.8,1.4,5.2,0C31.5,23.5,31.5,21.2,30.1,19.7z"/>
	<path id="XMLID_7_" class="st0" d="M11,51.2H3.7c-2,0-3.7,1.6-3.7,3.7c0,2,1.7,3.7,3.7,3.7H11c2,0,3.7-1.6,3.7-3.7
		C14.6,52.8,13,51.2,11,51.2z"/>
	<path id="XMLID_6_" class="st0" d="M113.3,58.5H106c-2,0-3.7,1.6-3.7,3.7c0,2,1.6,3.7,3.7,3.7h7.3c2,0,3.7-1.6,3.7-3.7
		C117,60.1,115.4,58.5,113.3,58.5z"/>
	<path id="XMLID_5_" class="st0" d="M102.4,19.7c-1.4-1.4-3.7-1.4-5.2,0l-5.2,5.2c-1.4,1.4-1.4,3.8,0,5.2c1.4,1.4,3.8,1.4,5.2,0
		l5.2-5.2C103.9,23.5,103.9,21.2,102.4,19.7z"/>
	<path id="XMLID_4_" class="st0" d="M62.2,14.6c1,0,1.9-0.4,2.6-1.1c0.7-0.7,1.1-1.6,1.1-2.6V3.7c0-2-1.6-3.7-3.7-3.7
		c-1.5,0-2.8,0.9-3.4,2.2l-0.3,1.4V11C58.5,13,60.1,14.6,62.2,14.6z"/>
	<path class="st0" d="M58.5,29.3c-16.2,0-29.3,13.1-29.3,29.3c0,10.8,5.9,20.1,14.6,25.2v11.4h29.3V83.7
		c8.7-5.1,14.6-14.4,14.6-25.2C87.7,42.4,74.6,29.3,58.5,29.3z M69.4,77.4l-3.6,2.1v4.2v4.1H51.2v-4.1v-4.2l-3.6-2.1
		c-6.9-4-11-11.1-11-18.9c0-12.1,9.8-21.9,21.9-21.9c12.1,0,21.9,9.8,21.9,21.9C80.4,66.3,76.3,73.4,69.4,77.4z"/>
	<path id="XMLID_1_" class="st0" d="M43.9,109.7h7.5l-0.2,0.9c0,3.5,3.3,6.4,7.3,6.4c4,0,7.3-2.9,7.3-6.4l-0.2-0.9h7.5v-7.3H43.9
		V109.7z"/>
</g>
</svg>
