<?xml version="1.0" encoding="utf-8"?>
<!-- Generator: Adobe Illustrator 19.0.0, SVG Export Plug-In . SVG Version: 6.00 Build 0)  -->
<svg version="1.1" id="Icons" xmlns="http://www.w3.org/2000/svg" xmlns:xlink="http://www.w3.org/1999/xlink" x="0px" y="0px"
	 viewBox="0 0 16 16" style="enable-background:new 0 0 16 16;" xml:space="preserve">
<style type="text/css">
	.st0{fill:#1D1D1B;}
</style>
<path id="LinkedIn__x28_alt_x29__1_" class="st0" d="M14.8,0H1.2C0.5,0,0,0.5,0,1.1v13.7C0,15.5,0.5,16,1.2,16h13.6
	c0.7,0,1.2-0.5,1.2-1.1V1.1C16,0.5,15.5,0,14.8,0z M4.9,13.4H2.4V6.2h2.4V13.4z M3.6,5.2L3.6,5.2c-0.8,0-1.4-0.6-1.4-1.2
	c0-0.7,0.5-1.2,1.4-1.2C4.5,2.7,5,3.2,5,3.9C5,4.6,4.5,5.2,3.6,5.2z M13.6,13.4h-2.4V9.5c0-1-0.3-1.6-1.2-1.6
	c-0.7,0-1.1,0.4-1.2,0.9C8.6,8.9,8.6,9.1,8.6,9.4v4H6.2c0,0,0-6.5,0-7.2h2.4v1C8.9,6.7,9.5,6,10.8,6c1.6,0,2.8,1,2.8,3.3V13.4z
	 M8.6,7.2C8.6,7.2,8.6,7.2,8.6,7.2L8.6,7.2L8.6,7.2z"/>
</svg>
