<?xml version="1.0" encoding="utf-8"?>
<!-- Generator: Adobe Illustrator 19.0.0, SVG Export Plug-In . SVG Version: 6.00 Build 0)  -->
<svg version="1.1" id="Layer_1" xmlns="http://www.w3.org/2000/svg" xmlns:xlink="http://www.w3.org/1999/xlink" x="0px" y="0px"
	 viewBox="0 0 87 87" style="enable-background:new 0 0 87 87;" xml:space="preserve">
<style type="text/css">
	.st0{fill:#1D1D1B;}
</style>
<g>
	<path id="XMLID_3_" class="st0" d="M82.2,0H4.8C2.1,0,0,2.1,0,4.8V17c0,2.6,2.1,4.8,4.8,4.8h77.5c2.6,0,4.8-2.1,4.8-4.8V4.8
		C87,2.1,84.9,0,82.2,0z"/>
	<path id="XMLID_2_" class="st0" d="M82.2,32.6H4.8c-2.6,0-4.8,2.1-4.8,4.8v12.2c0,2.6,2.1,4.8,4.8,4.8h77.5c2.6,0,4.8-2.1,4.8-4.8
		V37.4C87,34.8,84.9,32.6,82.2,32.6z"/>
	<path id="XMLID_1_" class="st0" d="M82.2,65.3H4.8C2.1,65.3,0,67.4,0,70v12.2C0,84.9,2.1,87,4.8,87h77.5c2.6,0,4.8-2.1,4.8-4.8V70
		C87,67.4,84.9,65.3,82.2,65.3z"/>
</g>
</svg>
