<?xml version="1.0" encoding="utf-8"?>
<!-- Generator: Adobe Illustrator 19.0.0, SVG Export Plug-In . SVG Version: 6.00 Build 0)  -->
<svg version="1.1" id="Layer_1" xmlns="http://www.w3.org/2000/svg" xmlns:xlink="http://www.w3.org/1999/xlink" x="0px" y="0px"
	 viewBox="0 0 39.4 123.3" style="enable-background:new 0 0 39.4 123.3;" xml:space="preserve">
<style type="text/css">
	.st0{fill:#1D1D1B;}
</style>
<g>
	<polygon id="XMLID_3_" class="st0" points="0.1,97.4 9.8,110.4 19.5,123.3 29.3,110.4 39,97.4 19.6,97.4 	"/>
	<polygon id="XMLID_2_" class="st0" points="32.4,84.4 25.9,84.4 25.9,26.1 13,26.1 13,84.4 6.5,84.4 6.5,26.1 0,26.1 0,90.9 
		38.9,90.9 38.9,26.1 32.4,26.1 	"/>
	<path id="XMLID_1_" class="st0" d="M33,0L7,0C3.5,0,0.6,2.8,0.6,6.2L0.7,7L0.5,7l0,12.5l38.9,0l0-12.4l-0.2,0l0.2-0.8
		C39.4,2.8,36.5,0,33,0z"/>
</g>
</svg>
