<?xml version="1.0" encoding="utf-8"?>
<!-- Generator: Adobe Illustrator 19.0.0, SVG Export Plug-In . SVG Version: 6.00 Build 0)  -->
<svg version="1.1" id="Layer_1" xmlns="http://www.w3.org/2000/svg" xmlns:xlink="http://www.w3.org/1999/xlink" x="0px" y="0px"
	 viewBox="0 0 125.9 89.5" style="enable-background:new 0 0 125.9 89.5;" xml:space="preserve">
<style type="text/css">
	.st0{fill:#61B7E8;}
</style>
<g id="XMLID_4_">
	<path id="XMLID_240_" class="st0" d="M47.8,83.8c-3.1,2.8-7,4-11,4.8c-1.2-0.4-2.4,0.3-3.6,0.1c-3.5,0.3-6.9-0.5-10.4-0.4
		C17.2,86.6,12.4,83.9,9,79c0.5-1.5-0.9-1.4-1.6-2c-1.4-1-2.2-2.4-2.6-4.1c-0.4-1-1-2.1-0.9-3.2c0.2-2,1-1.2,1.8-0.3
		c0.8,0.7,0.5,2.7,2.4,2c1.5-1.3,1.1-2-0.7-2.3c-1.6-0.3-3.2-0.4-3.1-2.6c0.1-0.3,0.3-0.6,0.5-0.8c1.9-1.1,0.1-2.2-0.2-3.2
		C4.5,61.6,3.5,61,4.1,60c2.6-4.2,1.9-8.6,0.8-13c-0.1-1.9-0.4-3.8-0.2-5.6c0.1-2.2,0.2-4.4-0.3-6.6c0.7-1.2,1.4-2.3,2-3.5
		c0.6-0.6,1.1-1.1,0.8-2.1c0-1,1.1-1.3,1.4-2.1c0.6-0.9,1.2,1.8,1.8,0c0.4-2.6,1.7-4.5,4.3-5.4c0.5-0.1,0.9,0,1.4,0.2
		c0.2,0.2,0.4,0.4,0.3,0.6c-1.6,2,0.8,1,1.2,1.6c0.2,0.2,0.4,0.5,0.4,0.8c0.3,1.5-1.1,2-1.8,2.7c2.8,0,2.1,2,2,3.6
		c1.1,1.5,0.6,3.3,0.6,5c-0.1,5.9,2.5,9.6,9.7,10.2c1.9,0.2,3.9-0.5,5.7,0.6c-0.7,0.5-1.4,0.7-1.8,0.3c1,0.3,2.4,0.2,3.7-0.1
		c9.3-0.5,18,7.4,18.6,15.1c-0.7,4.4-0.1,8.9-1.2,13.2c-0.3,2.2-1.3,4-2.9,5.5c-0.5,0.2-1.1,0.4-1.6,0.4
		C46.7,81.4,46.7,82.3,47.8,83.8z"/>
	<path id="XMLID_239_" class="st0" d="M123.2,56.8c1.7,2.5,2,5.4,2.1,8.3c-0.2,1.4-0.2,2.8,0,4.3c-0.1,1.5,0.3,3-0.7,4.3
		c-0.4-0.3-0.7-0.7-0.7-1.1c0-0.8-0.2-1.2-1.1-1.1c-0.9,0.1-0.8,0.6-0.8,1.2c-0.1,3-2.6,5.1-3,8.2c-0.2,2-2.9,2.3-4.7,3
		c-0.7,0.3-2-0.2-0.4,1.1c0.7,0.6-1,1.8-2.4,2.1c-3.7,0.9-7.3,1.7-11.1,1.8c-0.6,0-1.1,0.3-1.6,0.6c-2.2,0.3-4.3-0.4-6.3-1.2
		c0.6-0.7,1.3-0.4,1.2-0.4c-0.8-0.1-2.2-0.9-3.9-0.4c-2.9-1.4-5.9-2.6-8-5.3c0.9-1.7,2.4-3.2,1.8-5.5c-0.8,1.5-1.8,3-3.5,1.9
		c-1.9-1.3-0.1-2.8,0.3-4.5c-1.3,0-3,1.5-3.9-0.5c-1-2.2-3.3-4.1-1.6-6.9c0-0.4,0-1.2-0.1-1.2c-0.8,0.2-0.1,1-0.5,1.5
		c-0.7,1.2-1.3,0.3-1.9-0.1c-1.1-2.7-1.8-5.5-1.8-8.4c0.4-0.8,0.1-1.8,0.5-2.6c0.3-3.2-0.2-6.5,0.4-9.7c0.4-3.1,3-5.7,2.3-9.1
		c2-5.3,4.3-10.4,8.4-14.6c0.4,0,0.8,0.2,1.2,0.5c0.5,0.3,1,0.6,1.4,1c0.9,0.9,2,1.4,3.4,1.2c1.3,2.4,0.8,4.3-1.3,5.2
		c-2.7,1.1-3.7,3.5-2.5,6.2c0.3,0.7,1.2,1.3,1,2.1c-0.7,3,1.3,2.6,3.1,2.5c0.8,0.2,1.3,0.5,1.4,1.4c0.1,0.2,0.2,0.4,0.3,0.6
		c0.4,0.8-1.3,1.2-0.6,2c0.9,0.9,1.5-0.5,2.4-0.5c1.5,0.7,2.9,1.3,4.4,2c-0.3,3.8,3.4,3.2,5.2,4.4c1.5,1,3.9,1.3,5.9,0.2
		c1.1-0.4,2.1-0.9,3.1-1.5c0.3-0.1,0.7-0.2,1-0.3c1.6,0,3.2,0.3,4.7,0.7c0.9,0.1,1.6,0.5,2,1.3c0,1,0.4,1.8,0.7,2.7
		c0.1,0.7,0.3,1.4,0.2,2.1c0,0.3-0.6,0.3-0.2,0.6c0.1,0,0.3-0.2,0.4-0.4C120.9,55.6,122,56.4,123.2,56.8z"/>
	<path id="XMLID_238_" class="st0" d="M5.6,47.1c1.5,4.4,1.8,8.6-0.6,13.1c-0.4,0.7,0.8,4.1,2.9,5.4c-1,1.5-2,0.6-3,0.2
		c-0.2,0-0.4-0.1-0.5-0.2c-0.2,0.5,0.4,0.6,0.5,0.9c-0.1,2,1.6,1.3,2.6,1.7c1,0.4,2.7-0.1,3,1.1c0.4,1.4-1.2,2-2.2,2.7
		c-1.7,0.3-1.9-1.3-2.8-2.1c-0.3-0.3-0.7-0.5-1-0.8c-0.1,0.3-0.3,0.6-0.2,0.8c0.3,0.9,0.7,1.9,0.5,2.9c-2.4-4.1-3.9-8.5-4-13.3
		c1-0.9,0.1-1.8,0-2.7c-0.2-1.5,0.1-3.1-0.4-4.6c0.1-1.1-0.3-2.2,0.3-3.2c0.2-1.4-0.4-2.8,0.5-4.1c1.4-0.5,1.1-2.4,2.5-2.8
		C6,43.2,4.7,45.6,5.6,47.1z"/>
	<path id="XMLID_237_" class="st0" d="M14.5,18.8c2.4-2.3,3.6-5.6,6.9-7c0.4,0.1,0.8,0,1.2-0.1c0.6-0.1,1.1-0.2,1.7-0.1
		c1.1-0.1,1.5-1.2,2.4-1.7c-0.9,0.4-1.3,1.7-2.6,1.4c-0.2-0.3-0.3-0.6-0.4-0.9c0-0.5,0.2-1,0.4-1.4c2.6-2.2,5.1-4.8,8.3-6.2
		c1,1.3,1.8,2.6,1.4,4.3c-2.2,2.1-4.5,4.1-6.7,6.3c-3.3,3.3-5.6,7.3-7.3,11.6c-0.5,0.5-1.2,0.6-1.9,0.3c-0.5-0.4-0.3-0.9-0.1-1.3
		c0.7-1.1,1.7-2.1,1.1-3.6c0-1.3-1-0.9-1.7-0.9c-0.5,0.1-0.9,0.1-1.4,0.1c-0.3,0-0.6-0.1-0.9-0.2C15,19.2,14.7,19,14.5,18.8z"/>
	<path id="XMLID_236_" class="st0" d="M88.6,40.8c-3.6,1.7-3.3,1.6-3.9-2.2c-0.3-2-1.3-4-1.6-6.2c-0.3-2.5,1.2-3.1,2.7-3.3
		c2.9-0.5,3.2-0.8,2-4.1c-0.8-0.1-1.2-0.6-1.7-1.2c-0.3-0.5-0.6-0.9-1-1.3c-0.8-0.6-1.5-1.3-1.6-2.4c1-1.9,2-3.6,4.3-4.2
		c0.9,0.7,0.2,2.2,1.4,2.7c1,1.3,2.1,2.6,1.4,4.4c-1.1,4.5-2.3,9-2.8,13.6c0.3,0.9-0.3,2,0.6,2.9C88.6,40,88.6,40.4,88.6,40.8z"/>
	<path id="XMLID_235_" class="st0" d="M99,89.2c0.6-1.1,1.5-1.2,2.6-1.3c3.4-0.4,6.8-0.9,10.2-1.4c0.9-0.1,1.4-0.7,1.9-1.4
		c-0.7-0.9-2.1,0.4-2.6-1c-0.2-0.3,0-0.5,0.4-0.5c2,0,3.7-1.1,5.5-1.8c1.5-0.6,2.2-1.8,2-3.5c-0.2-1.7-0.8-3.1,1.8-3.8
		c1.6-0.5-0.8-3.1,0.6-4.6c1.6,0.7,3.8,1,3.1,3.8c-1.2,6.9-5.8,11-11.9,13.4C108.4,88.8,103.8,89.8,99,89.2z"/>
	<path id="XMLID_234_" class="st0" d="M108,51.3c-1.9,2.8-5,1.1-6.3,0.5c-2.3-1.2-4.8-1.8-7.3-2.9c0.2-1.4,2.7-0.8,2.1-2.6
		c4.8,0.4,9.6,0,14.3,1.6c0.6,0.7,0.6,1.3,0,2l0,0c-0.9,0.6-1.8,0.8-2.8,0.4c-0.8-0.2-1.4,0.7-2.2,0.5c0.6,0.2,1.1-0.2,1.6-0.4
		C107.9,50.4,108.2,50.7,108,51.3z"/>
	<path id="XMLID_233_" class="st0" d="M76.1,66.5c-2.4,2.7,0.2,4.5,1.4,6.2c1.1,1.6,2.8-0.5,4.4-0.2c0.5,1.1-0.9,1.4-1,2.2
		c-0.2,1.1-1.2,2-0.6,3.1c0.1,0.2,0.8,0.3,1.2,0.2c1.6-0.3,1.6-1.6,1.3-3.1c2.9,2.7,2.6,5.1-0.8,7c-4.9-4-7.8-9.3-9.5-15.3
		c0.5,0,1.1,0.7,1.5-0.1C74.8,65.4,75.5,65.4,76.1,66.5z"/>
	<path id="XMLID_232_" class="st0" d="M100.3,4.8c1.4-1.1,2.5-2.6,4.2-3.2c1.4,0.6,4.7-2.2,3.9,2.2c-0.1,1.1-2.2,0.4-1.8,2
		c-1.8,1.4-3.7,2.7-5.5,4.1c-1.3-0.4-0.7-1.7-1.1-2.5C100,6.5,99.8,5.6,100.3,4.8z"/>
	<path id="XMLID_231_" class="st0" d="M34,7.1c-0.9-1.3-1.7-2.6-1.4-4.3c1-0.9,1.9-1.9,3.3-2.1c0.3-0.1,0.6-0.2,0.9-0.1
		c1.2,0.5,2.1,1.3,3.2,1.9c0.1,0.1,0.2,0.3,0.3,0.4C38.7,5.2,36.2,5.9,34,7.1z"/>
	<path id="XMLID_230_" class="st0" d="M90.7,23.1c-0.3-1.6-1.3-2.9-2.1-4.3c-0.7-0.9,0-1.6,0.3-2.4c0.8-1.4,2.1-1.9,3.7-1.7
		c0.4,0.1,0.7,0.2,1,0.4c0.6,0.5,1,1,0.7,1.8C93.6,19.2,92.1,21.1,90.7,23.1z"/>
	<path id="XMLID_229_" class="st0" d="M93.4,15.3c-0.2,0-0.5,0-0.7,0c-0.7-0.9-3-0.5-2.1-2.7c1.2-1.3,2.4-2.7,4-3.6
		c1-0.8,1.2,1.6,2.3,0.6c0.4,0.2,0.8,0.5,1,1c0.1,0.5,0.1,0.9-0.1,1.4C96.5,13.3,94.8,14.1,93.4,15.3z"/>
	<path id="XMLID_228_" class="st0" d="M53.5,75.6c-2-2,0.6-4.1-0.2-6.4c-0.6-1.9,0.8-4.5,1.3-6.8c-0.2,2.3,1.2,4.5,0.6,6.9
		c-0.8,0.8,0.2,2-0.6,2.8C54.3,73.2,53.9,74.4,53.5,75.6z"/>
	<path id="XMLID_227_" class="st0" d="M18,25c0.7,0,1.3,0,2,0c-0.7,2.1-0.3,4.5-2,6.3C17.8,28.7,17,27,14,29.8
		c0-2.8,3.3-2.6,3.3-4.8C17.6,24.7,17.8,24.7,18,25z"/>
	<path id="XMLID_226_" class="st0" d="M22.8,88.2c1.3-1.8,3.2-0.6,4.7-0.5c1.9,0.1,3.9,0.1,5.8,0.3c0.8,0.8,2.1-0.1,2.9,0.7
		C31.7,89.9,27.2,89.6,22.8,88.2z"/>
	<path id="XMLID_225_" class="st0" d="M108,3.6c-0.1-1,0.2-2.6-1.7-1.4c-1,0.7-1.4,0.1-1.8-0.6c0.5-0.5,1.1-0.9,1.8-0.9
		c2.2,0.1,4.5-1.3,6.5,0.8c-1,1.5-2.5,2.2-4.1,2.9C108.3,4.3,108.2,3.9,108,3.6z"/>
	<path id="XMLID_224_" class="st0" d="M74,36.7c0.9,1.4,2.8,2.7-0.1,4.3c-1.2,0.7,0.1,3.3-1.9,4c-0.3-0.2-0.5-0.4-0.6-0.7
		C72.1,41.8,72.5,39.1,74,36.7z"/>
	<path id="XMLID_223_" class="st0" d="M4.3,34.7c2.5,1.9,0.8,4.6,1.3,6.9c-0.1,0-0.2,0.1-0.3,0.1c-0.7,0-0.9-2.1-2.1-0.5
		c-0.5-0.3-0.8-0.6-0.5-1.2C2.9,38.1,3.4,36.3,4.3,34.7z"/>
	<path id="XMLID_222_" class="st0" d="M96.9,9.8c-0.5,0.6-1,1.1-1.5,1.7c-0.9-0.7,0.7-2-0.7-2.4c1.3-1.8,3.1-3,5-4
		c0.9,1,0.3,1.9,0,2.8C99.1,9.1,98.2,9.8,96.9,9.8z"/>
	<path id="XMLID_221_" class="st0" d="M14.6,22.2c-1.8,1.4-3.8,2.7-3.5,5.5c-0.3,0.5-0.8,1-1.3,0.6c-0.7-0.5-0.5-1.4-0.1-2.1
		c-0.3-2.8,2.3-3.8,3.4-5.7c0.4,0.1,0.7,0.3,1,0.6C14.4,21.5,14.6,21.8,14.6,22.2z"/>
	<path id="XMLID_220_" class="st0" d="M71.4,44.4c0.2,0.2,0.4,0.5,0.6,0.7c-0.4,3.7,0.8,7.5-0.7,11.1c-0.7-0.8,0-1.9-0.6-2.8
		C70.2,50.3,70.9,47.4,71.4,44.4z"/>
	<path id="XMLID_219_" class="st0" d="M47.8,83.8c-0.8-0.7-3.2-0.9-2.2-2.3c1-1.3,3.2-1.4,5-0.5C49.8,82.2,49.1,83.3,47.8,83.8z"/>
	<path id="XMLID_218_" class="st0" d="M93.4,15.3c-0.1-2.9,2.9-2.2,4.2-3.5c0.6-0.3,0.7,0,0.7,0.5c-1.7,1.2-2.1,3.5-4.1,4.4
		C93.9,16.3,93.7,15.8,93.4,15.3z"/>
	<path id="XMLID_217_" class="st0" d="M36.7,0.8c-0.3,0-0.6-0.1-0.9-0.1c1.3-1.2,2.8-0.5,4.2-0.5c1,0,2.8-0.7,2.9,0.8
		c0.1,1-1.4,1.9-2.7,2L40,2.8C39.1,1.8,37.7,1.7,36.7,0.8z"/>
	<path id="XMLID_216_" class="st0" d="M92.1,44.3c-0.6,1.1-1.2,2.9-2.6,1.9c-1.6-1.1-0.2-2.7,0.5-4C90.7,42.9,91.4,43.6,92.1,44.3z"
		/>
	<path id="XMLID_215_" class="st0" d="M90.7,12.7c0,1.4,1.8,1.4,2.1,2.7c-1.4-0.2-2.6,0.3-3.5,1.4c-1.4,0.4-0.8-1-1.3-1.4
		C88.5,14.1,89.4,13.1,90.7,12.7z"/>
	<path id="XMLID_214_" class="st0" d="M1.5,57.5c1.1,1.1,0.8,1.8-0.6,2.1c-1-3.5-1.2-7-0.1-10.5c0,1.2,0,2.4,0.1,3.6
		C1.6,54.2,0.5,56,1.5,57.5z"/>
	<path id="XMLID_213_" class="st0" d="M96.9,9.8c0.7-0.7,1.4-1.4,2.1-2.1c0.5-0.4,0.9-0.4,1.4,0c0.2,0.7,0.5,1.4,0.7,2.2
		c-0.5,0.5-0.9,0.9-1.4,1.4c-0.7-0.2-1.5-0.4-2.1-0.8C97.4,10.3,97.1,10,96.9,9.8z"/>
	<path id="XMLID_212_" class="st0" d="M118.3,54.1c-0.1-1-0.6-1.9,0-2.9c1.2,1.2,2.3,2.3,3.5,3.5C120.2,57.2,119.3,55.2,118.3,54.1z
		"/>
	<path id="XMLID_211_" class="st0" d="M2.7,40c0.3,0.3,0.5,0.6,0.8,0.9c0.4,0.5,0.4,0.9,0,1.4c0.1,1.6-0.4,2.8-2.3,2.7
		C1.5,43.2,1.7,41.5,2.7,40z"/>
	<path id="XMLID_210_" class="st0" d="M118.3,54.1c1.1,0.3,2,2.5,3.5,0.6c0.9,0.4,1.4,1.1,1.4,2.2c-1.2,1.1-2.4-0.8-3.5,0
		c-0.6,0.2-0.9,0-0.7-0.7C118.8,55.4,118.6,54.7,118.3,54.1z"/>
	<path id="XMLID_209_" class="st0" d="M110.7,49.9c0-0.7,0-1.3,0-2c2.1,0.1,3.9,0.9,5.6,2C114.5,49.9,112.6,49.9,110.7,49.9z"/>
	<path id="XMLID_208_" class="st0" d="M83.6,20.1c0.7,0.7,1.5,1.4,2.2,2.1c-0.5,1.9-1.7,1-2.8,0.7c-0.2-0.3-0.5-0.5-0.7-0.8
		C82.3,21.2,82.8,20.6,83.6,20.1z"/>
	<path id="XMLID_207_" class="st0" d="M112.8,1.5c-2-1.4-4.3-0.3-6.5-0.8c2.2-1.2,4.6-0.3,6.9-0.5c0.2,0,0.4,0.3,0.6,0.5
		C113.5,1,113.1,1.2,112.8,1.5z"/>
	<path id="XMLID_206_" class="st0" d="M125.4,69.3c-1.3-1.4-1.2-2.8,0-4.3C126.1,66.5,126.1,67.9,125.4,69.3z"/>
	<path id="XMLID_205_" class="st0" d="M7.4,77C8,77,8.5,77.1,9,77.2c0.6,0.1,1.6-0.3,1.6,0.6c0.1,1.1-1,1-1.7,1.1
		C8.1,78.6,7.6,77.9,7.4,77z"/>
	<path id="XMLID_204_" class="st0" d="M90,87.1c1.8-1.3,3.3-0.3,5.5,0.6c-1.3,0.1-2.1,0.2-2.8,0.2C91.8,87.7,90.9,87.4,90,87.1z"/>
	<path id="XMLID_203_" class="st0" d="M9.7,26.3c0.1,0.8-0.4,2.3,1.4,1.5c-0.1,0.8-0.3,1.8-1.2,1.7c-1.4-0.1-0.4-1.9-1.4-2.4
		C8.4,26.1,9.2,26.5,9.7,26.3z"/>
	<path id="XMLID_202_" class="st0" d="M22.2,12.6c-0.2-0.3-0.5-0.5-0.7-0.8c0.7-1.1,1.7-2,2.8-2.8c0,0.5,0,1,0,1.5
		C23.8,11.4,23.1,12,22.2,12.6z"/>
	<path id="XMLID_201_" class="st0" d="M97.6,10.5c1-0.6,1.7-0.3,2.1,0.8c-0.3,0.6-0.7,1.1-1.4,1.1c-0.2-0.2-0.4-0.4-0.7-0.5
		C97.6,11.4,97.6,11,97.6,10.5z"/>
	<path id="XMLID_200_" class="st0" d="M108,3.6c0.3,0.3,0.5,0.6,0.8,0.9c-0.5,0.8-1.2,1.3-2.1,1.3C105.5,4.1,107.7,4.4,108,3.6z"/>
	<path id="XMLID_199_" class="st0" d="M88,15.3c0.4,0.5,0.8,0.9,1.3,1.4c-0.2,0.7-0.5,1.4-0.7,2.1c-2.1-0.5-0.1-2-0.7-2.9
		C87.9,15.7,87.9,15.5,88,15.3z"/>
	<path id="XMLID_198_" class="st0" d="M13.9,21.6c-0.3-0.3-0.5-0.6-0.8-1c0.5-0.6,1-1.2,1.4-1.8c0.2,0,0.5,0,0.7,0
		C16.1,20.4,15.2,21,13.9,21.6z"/>
	<path id="XMLID_197_" class="st0" d="M36,47.2c-1.3,1-2.7,0.6-4.3,0.4c0.8-0.7,1.6-0.3,2.3-0.5C34.7,47.1,35.4,47.2,36,47.2z"/>
	<path id="XMLID_196_" class="st0" d="M7.1,29.2c0.5,0.4,1.3,0.7,1,1.5c-0.3,0.8-1.1,0.5-1.7,0.6C5.8,30.2,6.9,29.9,7.1,29.2z"/>
	<path id="XMLID_195_" class="st0" d="M100.3,7.7c-0.5,0-0.9,0-1.4,0c0.4-0.8,0.8-1.7,0.7-2.7c0.2-0.2,0.4-0.3,0.6-0.3
		C100.8,5.7,101.1,6.7,100.3,7.7z"/>
	<path id="XMLID_194_" class="st0" d="M70.7,53.4c0.9,0.8,0.5,1.8,0.6,2.8c0,0.7,0.1,1.5-0.6,2C70.7,56.6,70.7,55,70.7,53.4z"/>
	<path id="XMLID_193_" class="st0" d="M88.5,39.5c-1.5-0.7-1.3-1.7-0.6-2.9C89.1,37.4,88.9,38.5,88.5,39.5z"/>
	<path id="XMLID_192_" class="st0" d="M54.7,72.1c0.5-0.9-1.3-2.2,0.6-2.8C55.5,70.3,55.6,71.3,54.7,72.1z"/>
	<path id="XMLID_191_" class="st0" d="M36.2,88.7c-1-0.2-2.1,0.3-2.9-0.7c1.2,0.2,2.5-0.4,3.4,0.6l-0.3,0.1L36.2,88.7z"/>
	<path id="XMLID_190_" class="st0" d="M16,18.8c0.5,0,0.9,0,1.4,0c0.7,0.4,1.8,0.4,2.1,1.4c2.6,1.9-0.3,2.8-0.7,4.1
		c-0.6-0.8-0.4-1.6-0.2-2.4c-0.4,0.8,0,2-1.2,2.4c-0.5,0-0.9,0.1-1.4,0.1c-0.5,0-0.3,1.8-1.3,0.7c-0.5-0.5-0.7-1.2,0.4-1.5
		c0.7-0.2,0.8-0.7,0.9-1.3C16.2,21.1,15.2,19.9,16,18.8z"/>
	<path id="XMLID_189_" class="st0" d="M3.5,42.3c0-0.5,0-0.9,0-1.4c1.4-1.9,1.4,0.5,2.1,0.7c-0.6,1.8,0.3,3.7,0,5.5
		C4.3,45.8,5.4,43.4,3.5,42.3z"/>
	<path id="XMLID_188_" class="st0" d="M16,18.8c-0.2,1.2,2.6,2.3,0,3.5c-0.5,0-0.9,0-1.4,0c-0.2-0.2-0.5-0.5-0.7-0.7
		c0.4-1,1.5-1.6,1.4-2.8C15.5,18.8,15.7,18.8,16,18.8z"/>
	<path id="XMLID_187_" class="st0" d="M5.6,70c1.5-0.1,1.6,1.8,2.8,2.1C7,73.3,6.3,72.7,5.6,70z"/>
	<path id="XMLID_186_" class="st0" d="M38.9,48.9c0.5,0,1,0.2,0.9,0.7c-0.1,0.3-0.6,0.7-0.9,0.8c-0.4,0.2-1,0.1-1-0.5
		C37.7,49.3,38.4,49.2,38.9,48.9z"/>
	<path id="XMLID_185_" class="st0" d="M43.2,50.8c-0.8,1-1.5,1.3-2.6,1C41,50.4,42,50.6,43.2,50.8z"/>
	<path id="XMLID_184_" class="st0" d="M17.4,24.3c0.3-0.9,0.7-1.8,1-2.8c0.7,1,0.2,1.9,0.3,2.8c-0.2,0.2-0.5,0.5-0.7,0.7l-0.3,0
		l-0.3,0C17.4,24.8,17.4,24.6,17.4,24.3z"/>
	<path id="XMLID_183_" class="st0" d="M4.9,66.5c-1.4-0.1-1.5-1-1.2-2.2c0.8,0.2,0.9,1,1.2,1.5C4.9,66,4.9,66.3,4.9,66.5z"/>
	<path id="XMLID_182_" class="st0" d="M123.6,63.8c-0.7-0.6-2.5,0.2-2.5-1.6c0-1,1-1.2,1.4-1.1C123.8,61.3,123,62.9,123.6,63.8z"/>
	<path id="XMLID_181_" class="st0" d="M86.5,23.6c0.7,0.3,1.1,0.7,1.4,1.4c-1.9,1.5-2.6-0.1-3.5-1.4C85.1,23.2,85.8,23.1,86.5,23.6z
		"/>
	<path id="XMLID_180_" class="st0" d="M76.1,66.5c-0.7-0.4-1.4-0.4-2.1,0c0.6-0.7-1.7-1.9,0.2-2.3C76.2,63.7,76.1,65.3,76.1,66.5z"
		/>
	<path id="XMLID_179_" class="st0" d="M107.3,49.9c1.1,0,2.3,0,3.4,0c-0.5,1.3-1.6,1.4-2.8,1.4c-0.2-0.2-0.5-0.5-0.7-0.7
		c-0.2-0.2-0.3-0.3-0.2-0.5C107.1,50,107.2,49.9,107.3,49.9z"/>
	<path id="XMLID_178_" class="st0" d="M119,56.1c0.2,0.2,0.5,0.5,0.7,0.7c-0.1,0.6-0.2,1.3-1,1c-0.5-0.2-1.3-0.7-1-1.4
		C117.8,56.2,118.6,56.2,119,56.1z"/>
	<path id="XMLID_177_" class="st0" d="M96.5,87c0.7-1.2,1.5-1.2,2.4-1C98.4,87,97.6,86.9,96.5,87z"/>
	<path id="XMLID_176_" class="st0" d="M86.5,23.6c-0.7,0-1.4,0-2.1,0c-0.6,0-1.1-0.1-1.4-0.7c1-0.1,2,0.3,2.8-0.7
		C86.4,22.5,86.5,23.1,86.5,23.6z"/>
	<path id="XMLID_175_" class="st0" d="M4.6,50.5C5.1,51.8,5,53,4.7,54.2C3.9,52.9,3.9,52.9,4.6,50.5z"/>
	<path id="XMLID_174_" class="st0" d="M1.5,57.5c-1.3-1.5-0.4-3.2-0.7-4.8C2.1,54.2,1.2,55.9,1.5,57.5z"/>
	<path id="XMLID_173_" class="st0" d="M3.2,57.3c0.7,0.1,0.9,0.5,0.9,1c0,0.3-0.2,0.8-0.3,0.8c-0.5,0-0.8-0.5-0.8-0.9
		C2.9,57.9,3.1,57.6,3.2,57.3z"/>
	<path id="XMLID_172_" class="st0" d="M24.3,11.2c1.5-0.8,2.4-2.4,5-2.6c-2,1.5-2.8,3.4-5,3.3c-0.2-0.2-0.2-0.3-0.2-0.5
		C24.2,11.3,24.2,11.2,24.3,11.2z"/>
	<path id="XMLID_171_" class="st0" d="M19.4,20.2c-0.7-0.5-1.4-0.9-2.1-1.4c1-0.6,2-0.3,2.7,0.2C20.6,19.4,19.5,19.7,19.4,20.2z"/>
	<path id="XMLID_170_" class="st0" d="M24.3,11.2c0,0.2,0,0.5,0,0.7c-0.7,0.2-1.4,0.5-2.1,0.7c0.5-0.9,1.1-1.6,2.1-2.1
		C24.3,10.7,24.3,10.9,24.3,11.2z"/>
	<path id="XMLID_169_" class="st0" d="M86.7,35.3c-0.3,0.2-0.6,0.4-0.8,0.4c-0.6,0-0.7-0.5-0.6-0.9c0.1-0.2,0.4-0.3,0.6-0.5
		C86.1,34.6,86.3,34.8,86.7,35.3z"/>
	<path id="XMLID_168_" class="st0" d="M86.8,31.8c-0.3-0.2-0.5-0.4-0.7-0.6c0.2-0.2,0.4-0.5,0.6-0.6c0.2,0,0.5,0.2,0.7,0.4
		C87.2,31.3,87,31.5,86.8,31.8z"/>
	<path id="XMLID_167_" class="st0" d="M122.8,72.5c0.4,1,1.2,1.7,0.5,2.8C122.1,74.5,122.5,73.6,122.8,72.5z"/>
	<path id="XMLID_166_" class="st0" d="M107.3,49.9c0,0.2,0,0.5,0,0.7c-1.3,1.1-2.5,0.9-3.9-0.3C104.8,49.6,106.2,51.1,107.3,49.9z"
		/>
	<path id="XMLID_165_" class="st0" d="M36.7,0.8c0.9,1,3.4-0.8,3.3,2C38.3,3.1,37.5,2.1,36.7,0.8z"/>
</g>
</svg>
