<?xml version="1.0" encoding="utf-8"?>
<!-- Generator: Adobe Illustrator 19.0.0, SVG Export Plug-In . SVG Version: 6.00 Build 0)  -->
<svg version="1.1" id="Icons" xmlns="http://www.w3.org/2000/svg" xmlns:xlink="http://www.w3.org/1999/xlink" x="0px" y="0px"
	 viewBox="0 0 16 16" style="enable-background:new 0 0 16 16;" xml:space="preserve">
<style type="text/css">
	.st0{fill:#1D1D1B;}
</style>
<g>
	<path class="st0" d="M12.6,1.1c-1,0.3-2.5,1.3-3.3,2L5,7.4c-0.4,0.4-0.4,1,0,1.4L7.2,11c0.4,0.4,1,0.4,1.4,0l4.2-4.2
		c0.8-0.8,1.7-2.3,2-3.3L16,0L12.6,1.1z M9.6,8.5c-0.6,0.6-1.5,0.6-2.1,0C6.9,7.9,6.9,7,7.5,6.4c0.6-0.6,1.5-0.6,2.1,0
		C10.2,7,10.2,7.9,9.6,8.5z M12.5,5.7c-0.6,0.6-1.5,0.6-2.1,0c-0.6-0.6-0.6-1.5,0-2.1c0.6-0.6,1.5-0.6,2.1,0
		C13.1,4.1,13.1,5.1,12.5,5.7z"/>
	<path class="st0" d="M2.2,8.8l3.5-3.5C5,4.5,3.7,4.5,2.9,5.3L0.8,7.4c-0.4,0.4-0.4,1,0,1.4C1.2,9.2,1.8,9.2,2.2,8.8z"/>
	<path class="st0" d="M7.2,13.8c-0.4,0.4-0.4,1,0,1.4c0.4,0.4,1,0.4,1.4,0l2.1-2.1c0.8-0.8,0.8-2.1,0-2.8L7.2,13.8z"/>
	<path class="st0" d="M4,9.9c-0.2,0.2-0.2,0.5,0,0.7L5.4,12c0.2,0.2,0.5,0.2,0.7,0l0.4-0.4L4.3,9.5L4,9.9z"/>
	<path class="st0" d="M0,16c2-1,5-3,4-4S1,14,0,16z"/>
</g>
</svg>
