<?xml version="1.0" encoding="utf-8"?>
<!-- Generator: Adobe Illustrator 19.0.0, SVG Export Plug-In . SVG Version: 6.00 Build 0)  -->
<svg version="1.1" id="Layer_1" xmlns="http://www.w3.org/2000/svg" xmlns:xlink="http://www.w3.org/1999/xlink" x="0px" y="0px"
	 viewBox="0 0 161.9 161.9" style="enable-background:new 0 0 161.9 161.9;" xml:space="preserve">
<style type="text/css">
	.st0{fill:#1D1D1B;}
</style>
<g>
	<path class="st0" d="M105.1,95.4H89.6c-0.9-3-2.2-5.8-3.8-8.4l10.3-10.3c2.4-2.4,2.4-6.3,0-8.7l-4.4-4.3c-2.4-2.4-6.3-2.4-8.8,0
		L72.5,74.1c-2.8-1.6-5.9-2.8-9.2-3.7V56.8c0-3.4-2.7-6.2-6.2-6.2H51c-3.4,0-6.2,2.8-6.2,6.2v13.6c-3.5,0.9-6.9,2.3-9.9,4.2
		l-8.8-8.7c-2.4-2.4-6.3-2.4-8.7,0L13,70.2c-2.4,2.4-2.4,6.3,0,8.8l8.9,8.9c-1.9,3.3-3.3,6.9-4.1,10.7H6.2c-3.4,0-6.2,2.8-6.2,6.2
		v6.2c0,3.4,2.8,6.2,6.2,6.2h12.4c1.1,3.7,2.8,7.2,5,10.3l-8.4,8.4c-2.4,2.4-2.4,6.4,0,8.8l4.4,4.4c2.4,2.4,6.3,2.4,8.8,0l9.4-9.4
		c3.2,1.6,6.6,2.7,10.2,3.3v12.9c0,3.4,2.7,6.2,6.2,6.2h6.2c3.4,0,6.2-2.8,6.2-6.2v-14.5c3.1-1.1,6.1-2.6,8.7-4.5l10,10
		c2.4,2.4,6.3,2.4,8.8,0l4.4-4.4c2.4-2.4,2.4-6.3,0-8.7l-10.9-10.9c1.3-2.7,2.4-5.6,3-8.7h14.7c3.4,0,6.2-2.7,6.2-6.2v-6.2
		C111.3,98.2,108.5,95.4,105.1,95.4z M54.1,121.7c-8.5,0-15.5-6.9-15.5-15.5c0-8.5,6.9-15.4,15.5-15.4c8.5,0,15.5,6.9,15.5,15.4
		C69.6,114.8,62.6,121.7,54.1,121.7z"/>
	<path class="st0" d="M157.9,28.5h-9.9c-0.6-1.9-1.4-3.7-2.4-5.3l6.5-6.6c1.5-1.5,1.5-4,0-5.6l-2.8-2.8c-1.5-1.5-4-1.5-5.6,0
		l-6.7,6.6c-1.8-1-3.8-1.8-5.8-2.4V3.9c0-2.2-1.8-3.9-3.9-3.9h-3.9c-2.2,0-3.9,1.8-3.9,3.9v8.6c-2.3,0.6-4.4,1.5-6.3,2.6l-5.6-5.6
		c-1.5-1.5-4-1.5-5.6,0l-2.8,2.8c-1.5,1.5-1.5,4,0,5.6l5.7,5.7c-1.2,2.1-2.1,4.4-2.6,6.8H95c-2.2,0-3.9,1.8-3.9,3.9v3.9
		c0,2.2,1.8,3.9,3.9,3.9h7.9c0.7,2.4,1.8,4.6,3.2,6.5l-5.3,5.4c-1.5,1.5-1.5,4,0,5.6l2.8,2.8c1.5,1.5,4,1.5,5.6,0l6-6
		c2,1,4.2,1.7,6.5,2.1v8.2c0,2.2,1.8,3.9,3.9,4h3.9c2.2,0,3.9-1.8,3.9-4v-9.2c2-0.7,3.9-1.6,5.6-2.8l6.3,6.3c1.5,1.5,4,1.5,5.6,0
		l2.8-2.8c1.5-1.5,1.5-4,0-5.6l-7-6.9c0.9-1.7,1.5-3.6,1.9-5.5h9.4c2.2,0,3.9-1.8,4-3.9v-3.9C161.9,30.3,160.1,28.5,157.9,28.5z
		 M125.5,45.2c-5.4,0-9.8-4.4-9.8-9.8c0-5.4,4.4-9.8,9.8-9.8c5.4,0,9.8,4.4,9.8,9.8C135.3,40.8,130.9,45.2,125.5,45.2z"/>
</g>
</svg>
